# xmcd CD database file
#
# Track frame offsets:
#	182
#	15005
#	29765
#	43765
#	57552
#	71957
#	85375
#	112535
#	138662
#	152537
#	167995
#	182147
#
# Disc length: 2616 seconds
#
# Revision: 0
# Processed by: cddbd v1.5PL3 Copyright (c) Steve Scherf et al.
# Submitted via: CDex 1.51
#
DISCID=a10a360c
DTITLE=Lionel Hampton - Flying Home
DYEAR=1900
DGENRE=Jazz
TTITLE0=Hamp's Boogie Woogie nº 1
TTITLE1=Midnight Sun
TTITLE2=Cobb's Idea
TTITLE3=Red Top
TTITLE4=Flying Home
TTITLE5=Hamp's Boogie Woogie nº 2
TTITLE6=Air Mail Special (Parte I and II)
TTITLE7=Rockin' In Rhythm (Parte I and II)
TTITLE8=Loose Wig
TTITLE9=In The Bag
TTITLE10=Playboy
TTITLE11=Empty Glass (Normania)
EXTD=
EXTT0=
EXTT1=
EXTT2=
EXTT3=
EXTT4=
EXTT5=
EXTT6=
EXTT7=
EXTT8=
EXTT9=
EXTT10=
EXTT11=
PLAYORDER=
